<svg
            className="h-10 w-10"
            viewBox="0 0 47 50"
            fill="none"
            xmlns="http://www.w3.org/2000/svg"
          >
            <circle cx="23.5" cy="23.5" r="22.5" fill="#8F8F8F" />
            <circle cx="23.5" cy="23.5" r="17.5" fill="#5D5D5D" />
            <circle cx="23.5" cy="23.5" r="12.5" fill="#4D4D4D" />
            <g clipPath="url(#clip0_1255_3626)">
              <path
                fillRule="evenodd"
                clipRule="evenodd"
                d="M23.5 12.1398C23.7699 12.1398 24.0288 12.247 24.2197 12.4379C24.4106 12.6288 24.5179 12.8877 24.5179 13.1576V14.5691C26.848 14.8202 29.0031 15.9237 30.5688 17.6676C32.1345 19.4114 33.0004 21.6725 33 24.0161C33 24.556 33.0001 25.091 33 25.5714C33 26.0518 33 26.0518 30.9643 26.0518H14.2292C13.6893 26.0518 14 26.25 14 25.5714C14 24.8928 14 24.556 14 24.0161C13.9999 21.6727 14.8659 19.412 16.4316 17.6684C17.9973 15.9249 20.1522 14.8215 22.4821 14.5704V13.159C22.482 13.0252 22.5082 12.8927 22.5592 12.7691C22.6103 12.6454 22.6852 12.533 22.7798 12.4384C22.8743 12.3437 22.9866 12.2686 23.1102 12.2174C23.2337 12.1661 23.3662 12.1398 23.5 12.1398ZM15.0586 27.9464C14.7886 27.9464 14.5297 28.0537 14.3388 28.2445C14.1479 28.4354 14.0407 28.6943 14.0407 28.9643C14.0407 29.2342 14.1479 29.4931 14.3388 29.684C14.5297 29.8749 14.7886 29.9821 15.0586 29.9821H31.9414C32.2114 29.9821 32.4703 29.8749 32.6612 29.684C32.852 29.4931 32.9593 29.2342 32.9593 28.9643C32.9593 28.6943 32.852 28.4354 32.6612 28.2445C32.4703 28.0537 32.2114 27.9464 31.9414 27.9464H15.0586Z"
                fill="#F2F2F2"
              />
              <path
                d="M15.3571 24.8929C15.3571 20.1429 17.3928 17.4286 21.4643 16.0714"
                stroke="#444444"
              />
              <path d="M36.925 24.8929H25.05" stroke="#444444" />
              <path
                d="M26.2143 21.5V25.5714"
                stroke="#F2F2F2"
                strokeWidth="0.5"
              />
            </g>
            <defs>
              <clipPath id="clip0_1255_3626">
                <rect
                  width="19"
                  height="19"
                  fill="white"
                  transform="translate(14 12)"
                />
              </clipPath>
            </defs>
          </svg>